xxxxxxxxxxxxxxxxxxxxxxxxxxxxxxxxxxxxxxxxxxxxxxxxxxxxxxxxxxxxxxxxxxxxxxxxxxxxxxxx

The Long Kiss Goodnight
1996

xxxxxxxxxxxxxxxxxxxxxxxxxxxxxxxxxxxxxxxxxxxxxxxxxxxxxxxxxxxxxxxxxxxxxxxxxxxxxxxx
 
http://www.imdb.com/title/tt0116908/ 
http://en.wikipedia.org/wiki/The_Long_Kiss_Goodnight

xxxxxxxxxxxxxxxxxxxxxxxxxxxxxxxxxxxxxxxxxxxxxxxxxxxxxxxxxxxxxxxxxxxxxxxxxxxxxxxx

Samantha Caine, suburban homemaker, is the ideal mom to her 8 year old daughter
Caitlin. She lives in Honesdale, PA, has a job teaching school and makes the
best Rice Krispie treats in town. But when she receives a bump on her head, she
begins to remember small parts of her previous life as a lethal, top-secret
agent.

xxxxxxxxxxxxxxxxxxxxxxxxxxxxxxxxxxxxxxxxxxxxxxxxxxxxxxxxxxxxxxxxxxxxxxxxxxxxxxxx

Geena Davis	 ...	Samantha Caine / Charly Baltimore
Samuel L. Jackson	 ...	Mitch Henessey

xxxxxxxxxxxxxxxxxxxxxxxxxxxxxxxxxxxxxxxxxxxxxxxxxxxxxxxxxxxxxxxxxxxxxxxxxxxxxxxx

General
Format                           : MPEG-4
Format profile                   : Base Media / Version 2
Codec ID                         : mp42
File size                        : 275 MiB
Duration                         : 1h 55mn
Overall bit rate                 : 334 Kbps

Video
ID                               : 1
Format                           : AVC
Format/Info                      : Advanced Video Codec
Format profile                   : Baseline@L1.3
Format settings, CABAC           : No
Format settings, ReFrames        : 2 frames
Codec ID                         : avc1
Codec ID/Info                    : Advanced Video Coding
Duration                         : 1h 55mn
Bit rate mode                    : Variable
Bit rate                         : 280 Kbps
Width                            : 480 pixels
Height                           : 208 pixels
Display aspect ratio             : 2.35:1
Frame rate mode                  : Variable
Frame rate                       : 23.976 fps
Minimum frame rate               : 23.810 fps
Maximum frame rate               : 24.390 fps
Color space                      : YUV
Chroma subsampling               : 4:2:0
Bit depth                        : 8 bits
Scan type                        : Progressive
Bits/(Pixel*Frame)               : 0.117
Stream size                      : 233 MiB (85%)
Writing library                  : x264 core 79

Audio
ID                               : 2
Format                           : AAC
Format/Info                      : Advanced Audio Codec
Format profile                   : LC
Codec ID                         : 40
Duration                         : 1h 55mn
Bit rate mode                    : Variable
Bit rate                         : 48.0 Kbps
Maximum bit rate                 : 80.2 Kbps
Channel(s)                       : 2 channels
Channel positions                : Front: L R
Sampling rate                    : 24.0 KHz
Compression mode                 : Lossy
Stream size                      : 39.5 MiB (14%)
Language                         : English

xxxxxxxxxxxxxxxxxxxxxxxxxxxxxxxxxxxxxxxxxxxxxxxxxxxxxxxxxxxxxxxxxxxxxxxxxxxxxxxx

FaCTFiCTioN ... 1. A work of fiction based in fact.
                2. A work of fiction which later becomes fact.

xxxxxxxxxxxxxxxxxxxxxxxxxxxxxxxxxxxxxxxxxxxxxxxxxxxxxxxxxxxxxxxxxxxxxxxxxxxxxxxx

272p = 272 lines of pixels in a 16:9 aspect ratio video with a 480 pixel width.

A 480x208 pixel video with an aspect ratio of 2.35:1 or a 480x352 pixel video
with an aspect ratio of 4:3 are also considered 272p.

272p m4v/mp4 format videos are easily played on PCs, Macs, smartphones, tablets,
and portable multimedia players such as iPods, Zunes, PSPs, etc.
